<?xml version="1.0" standalone="no"?>
<!DOCTYPE svg PUBLIC "-//W3C//DTD SVG 20010904//EN"
 "http://www.w3.org/TR/2001/REC-SVG-20010904/DTD/svg10.dtd">
<svg version="1.0" xmlns="http://www.w3.org/2000/svg"
 width="640.000000pt" height="640.000000pt" viewBox="0 0 640.000000 640.000000"
 preserveAspectRatio="xMidYMid meet">
<metadata>
Created by potrace 1.14, written by Peter Selinger 2001-2017
</metadata>
<g transform="translate(0.000000,640.000000) scale(0.100000,-0.100000)"
fill="#000000" stroke="none">
<path d="M0 3200 l0 -3200 3200 0 3200 0 0 3200 0 3200 -3200 0 -3200 0 0
-3200z m6098 1818 c96 -64 125 -189 67 -282 -32 -51 -89 -90 -147 -101 -34 -6
-34 -8 -97 -175 -34 -92 -78 -215 -96 -272 -18 -56 -48 -137 -68 -178 -19 -41
-58 -137 -88 -213 l-53 -137 32 -123 c89 -346 79 -798 -23 -1103 -39 -118
-101 -245 -142 -291 -28 -32 -31 -33 -105 -33 l-77 0 -25 -83 c-35 -115 -83
-228 -103 -242 -9 -7 -14 -19 -10 -29 4 -9 2 -16 -4 -16 -6 0 -7 -5 -3 -12 4
-7 3 -8 -5 -4 -8 5 -16 -3 -24 -23 -6 -17 -15 -31 -19 -31 -4 0 -8 -9 -8 -20
0 -11 -4 -20 -10 -20 -5 0 -10 -5 -10 -11 0 -6 -7 -17 -15 -26 -8 -8 -13 -19
-10 -24 4 -5 -1 -9 -9 -9 -10 0 -16 -9 -16 -21 0 -15 -5 -19 -15 -15 -8 3 -15
2 -15 -2 0 -7 -108 -7 -630 -1 -41 0 -101 -3 -132 -6 -32 -4 -79 -3 -105 3
-40 8 -114 5 -218 -10 -5 0 -29 2 -53 7 -39 6 -44 5 -49 -14 -3 -12 -12 -21
-19 -21 -17 0 -19 -7 16 77 209 514 284 1437 180 2223 -5 41 -12 102 -15 135
-12 138 -79 389 -163 612 -11 29 -17 55 -13 57 4 3 274 5 601 4 l594 0 25 -28
c71 -76 182 -305 242 -500 l34 -110 86 0 87 0 37 -56 c29 -44 40 -53 46 -42 5
9 35 89 67 179 48 134 124 329 172 444 4 11 18 47 30 80 12 33 26 68 31 77 14
27 11 36 -20 76 -53 68 -62 130 -35 222 17 57 58 105 97 113 12 3 54 4 93 4
59 -2 78 -7 112 -29z m-3931 -384 c37 -8 75 -20 86 -26 10 -5 58 -13 106 -16
68 -6 86 -10 84 -22 -2 -18 -26 -83 -33 -90 -3 -3 -11 -18 -19 -35 -7 -16 -17
-38 -22 -47 -10 -19 -28 -87 -36 -133 -2 -16 -11 -44 -19 -62 -8 -17 -14 -43
-14 -58 0 -14 -4 -35 -10 -45 -5 -10 -14 -53 -19 -97 -5 -43 -16 -121 -24
-173 -96 -620 -67 -1398 73 -1949 24 -98 98 -322 124 -383 11 -25 -18 -24 -35
1 -12 17 -28 20 -119 22 -58 2 -153 -1 -212 -6 -72 -5 -108 -4 -108 2 0 7 -18
9 -46 5 -31 -3 -49 -1 -54 8 -10 17 -80 4 -80 -15 0 -10 -14 -13 -57 -11 -88
4 -187 18 -194 28 -9 13 -57 -1 -61 -18 -4 -18 -148 -29 -148 -12 0 6 -21 8
-55 6 -30 -2 -55 -1 -55 3 0 4 -11 20 -24 36 -44 52 -134 228 -173 337 -14 39
-30 82 -36 96 -6 14 -18 48 -27 75 l-16 50 -87 3 -87 3 -31 45 c-52 76 -109
211 -154 364 -51 175 -70 562 -40 797 31 236 109 473 194 591 l31 42 84 0 84
0 42 127 c64 195 139 352 221 461 l40 52 107 0 c59 1 125 5 147 9 22 5 75 16
117 26 171 37 418 41 555 9z m1503 -111 c87 -224 152 -483 189 -753 11 -79 34
-321 34 -355 0 -11 4 -99 8 -195 14 -292 -14 -737 -67 -1050 -25 -148 -88
-406 -104 -425 -8 -10 -10 -16 -10 -34 0 -5 -36 -14 -81 -20 -54 -8 -87 -19
-100 -32 -17 -17 -35 -19 -181 -20 -564 -4 -596 -3 -612 10 -9 7 -16 9 -16 3
0 -5 -17 -1 -37 9 -28 14 -54 19 -99 17 -34 -2 -60 -6 -57 -10 2 -5 0 -8 -4
-8 -7 0 -35 80 -79 230 -72 243 -124 722 -124 1136 0 588 67 1046 211 1442
l41 112 533 0 532 0 23 -57z"/>
<path d="M4850 4374 c0 -8 5 -12 10 -9 6 4 8 11 5 16 -9 14 -15 11 -15 -7z"/>
<path d="M4185 4058 c3 -13 20 -86 39 -163 l34 -140 396 -3 c218 -1 396 2 396
6 0 11 -56 212 -76 275 l-16 47 -389 0 -389 0 5 -22z m290 -88 c13 -15 15 -23
7 -33 -8 -10 -6 -16 9 -25 24 -16 25 -48 0 -62 -11 -5 -51 -10 -88 -10 l-69 0
-1 50 c0 32 -7 58 -17 69 -9 10 -16 21 -16 24 0 4 35 7 78 7 66 0 82 -3 97
-20z m175 -33 c37 -56 48 -67 67 -67 15 0 7 55 -13 87 -8 12 -14 25 -14 28 0
10 151 5 171 -5 20 -11 27 -50 9 -50 -16 0 23 -49 38 -50 23 0 8 -35 -16 -38
-25 -4 -62 23 -62 43 0 12 -21 25 -42 25 -5 0 0 -16 12 -35 l22 -35 -102 0
c-99 0 -101 1 -98 22 2 15 -3 24 -14 26 -19 4 -25 -13 -8 -23 22 -13 8 -25
-29 -25 -39 0 -59 18 -40 37 5 5 12 33 16 61 6 50 7 52 37 52 26 0 36 -9 66
-53z"/>
<path d="M4382 3958 c7 -19 38 -22 38 -4 0 10 -9 16 -21 16 -12 0 -19 -5 -17
-12z"/>
<path d="M4400 3896 c0 -17 27 -29 35 -16 4 6 3 15 0 20 -9 15 -35 12 -35 -4z"/>
<path d="M4770 3956 c0 -11 9 -16 26 -16 31 0 28 23 -4 28 -15 2 -22 -2 -22
-12z"/>
<path d="M5430 3463 c1 -5 7 -37 15 -73 8 -36 14 -84 15 -108 0 -23 6 -58 14
-76 12 -29 17 -32 45 -28 48 7 55 29 47 166 -6 118 -11 141 -24 120 -13 -21
-51 -25 -82 -9 -16 8 -30 12 -30 8z"/>
<path d="M4317 3228 c6 -79 12 -153 12 -165 1 -28 37 -32 44 -5 4 16 5 16 6 0
1 -19 31 -25 31 -7 0 8 5 8 15 -1 11 -10 18 -10 29 -1 11 9 15 9 20 -1 4 -9 5
-8 4 2 -3 26 42 100 68 112 21 10 33 8 77 -14 29 -14 76 -29 105 -33 28 -4 52
-12 52 -18 0 -6 -12 -24 -27 -40 l-28 -30 30 8 c38 9 37 9 113 0 l63 -7 53 53
c63 64 99 146 100 229 l1 55 -72 3 c-71 3 -72 2 -87 -26 -20 -38 -39 -45 -84
-28 -20 8 -64 24 -97 36 -75 27 -140 24 -212 -12 -55 -28 -63 -27 -63 9 0 22
-3 23 -83 23 l-82 0 12 -142z"/>
<path d="M4560 3085 c-6 -8 -10 -19 -8 -24 1 -6 8 1 15 14 13 28 11 31 -7 10z"/>
<path d="M5080 3094 c0 -5 -43 -56 -96 -114 -99 -109 -135 -163 -133 -202 0
-17 4 -13 15 16 15 42 58 99 139 186 60 64 90 108 81 117 -3 3 -6 2 -6 -3z"/>
<path d="M4542 3015 c0 -16 2 -22 5 -12 2 9 2 23 0 30 -3 6 -5 -1 -5 -18z"/>
<path d="M4288 2973 c12 -2 32 -2 45 0 12 2 2 4 -23 4 -25 0 -35 -2 -22 -4z"/>
<path d="M4370 2971 c8 -4 42 -5 75 -1 l60 7 -75 1 c-43 1 -69 -2 -60 -7z"/>
<path d="M4518 2973 c7 -3 16 -2 19 1 4 3 -2 6 -13 5 -11 0 -14 -3 -6 -6z"/>
<path d="M4795 2903 c-22 -8 -83 -18 -135 -22 -93 -6 -95 -6 -117 -39 -60 -90
-87 -224 -58 -286 29 -61 76 -90 155 -94 88 -5 139 19 169 81 26 54 27 98 1
172 -26 74 -25 89 5 153 13 28 23 52 22 51 -1 0 -20 -7 -42 -16z"/>
<path d="M4878 2644 c8 -118 -42 -197 -144 -229 -56 -18 -147 -15 -186 6 -10
6 -18 7 -18 4 0 -3 16 -13 35 -21 45 -19 156 -18 203 2 88 36 141 133 127 233
-10 74 -21 78 -17 5z"/>
<path d="M4255 2148 c-8 -27 -75 -301 -75 -309 0 -5 164 -8 386 -7 l385 3 44
134 c24 74 47 148 50 163 l7 28 -397 0 c-308 0 -397 -3 -400 -12z m243 -101
c2 -10 -4 -27 -14 -38 -10 -11 -12 -19 -6 -19 20 0 13 -38 -10 -54 -15 -11
-46 -16 -95 -16 -40 0 -73 2 -73 5 0 3 8 17 17 31 9 14 16 45 16 70 l0 45 81
-3 c69 -3 81 -6 84 -21z m156 1 c3 -13 6 -36 6 -53 0 -16 5 -37 10 -45 16 -26
42 12 48 70 l5 51 86 -3 c80 -3 86 -5 89 -25 2 -13 -4 -26 -16 -32 -14 -7 -18
-18 -15 -36 3 -13 9 -22 14 -19 15 9 10 -13 -5 -25 -8 -7 -27 -11 -43 -9 -22
2 -28 8 -28 28 0 15 -6 26 -17 28 -14 3 -18 -3 -18 -27 l0 -30 -95 0 c-94 0
-106 4 -83 27 9 9 7 12 -9 12 -16 0 -20 -5 -16 -20 5 -18 0 -20 -36 -20 -44 0
-51 9 -24 31 9 8 31 38 50 67 28 43 39 52 62 52 21 0 30 -6 35 -22z"/>
<path d="M4400 2024 c0 -9 7 -14 17 -12 25 5 28 28 4 28 -12 0 -21 -6 -21 -16z"/>
<path d="M4387 1973 c-13 -12 -7 -23 13 -23 11 0 20 7 20 15 0 15 -21 21 -33
8z"/>
<path d="M4787 2033 c-14 -13 -6 -24 15 -21 27 4 36 28 11 28 -11 0 -23 -3
-26 -7z"/>
<path d="M4870 1655 c0 -8 5 -15 10 -15 6 0 10 7 10 15 0 8 -4 15 -10 15 -5 0
-10 -7 -10 -15z"/>
<path d="M1237 3927 c-26 -84 -47 -159 -47 -165 0 -9 96 -12 394 -12 l395 0
11 58 c6 31 20 97 31 147 10 49 19 97 19 107 0 17 -21 18 -378 18 l-379 0 -46
-153z m280 48 c3 -9 -2 -23 -10 -33 -12 -13 -13 -22 -5 -36 8 -14 6 -23 -10
-39 -25 -24 -164 -38 -177 -17 -4 7 -3 15 3 19 18 11 43 81 37 102 -6 18 -1
19 75 19 63 0 82 -3 87 -15z m149 -12 c3 -16 9 -41 13 -58 4 -16 14 -30 22
-30 17 0 40 62 33 93 -4 21 -2 22 81 22 70 0 87 -3 92 -17 4 -10 -2 -22 -15
-33 -21 -17 -21 -18 -2 -38 22 -24 17 -48 -11 -57 -35 -11 -59 4 -59 36 0 24
-4 30 -17 27 -14 -3 -17 -12 -15 -35 l3 -32 -95 0 c-97 1 -113 8 -84 37 9 9 7
12 -10 12 -17 0 -21 -5 -19 -22 2 -20 -3 -23 -40 -26 -47 -3 -53 6 -23 33 11
10 34 40 51 66 25 40 36 49 60 49 23 0 30 -5 35 -27z"/>
<path d="M1420 3955 c0 -10 7 -15 18 -13 21 4 19 22 -2 26 -10 2 -16 -3 -16
-13z"/>
<path d="M1400 3895 c0 -8 9 -15 20 -15 11 0 20 7 20 15 0 8 -9 15 -20 15 -11
0 -20 -7 -20 -15z"/>
<path d="M1797 3963 c-14 -13 -6 -23 18 -23 16 0 25 6 25 15 0 15 -31 21 -43
8z"/>
<path d="M1413 3353 c-89 -32 -108 -33 -108 -8 0 18 -8 20 -84 23 l-84 3 7
-113 c11 -184 17 -220 33 -214 8 4 41 6 73 6 58 0 59 0 70 35 12 35 61 85 85
85 7 0 32 -11 56 -24 24 -13 68 -27 96 -31 29 -4 55 -10 58 -15 5 -8 -31 -43
-108 -105 -35 -28 -52 -56 -24 -38 11 7 16 9 35 12 5 0 18 10 30 21 12 12 22
16 22 11 0 -6 26 -9 63 -8 56 2 62 4 65 25 2 12 7 20 12 17 4 -3 11 12 15 32
4 24 9 32 15 24 6 -11 9 -10 16 2 5 8 24 31 42 51 17 19 32 39 32 43 0 5 15
17 34 27 40 21 44 29 52 102 l7 54 -82 0 c-74 0 -81 -2 -81 -20 0 -11 -11 -27
-24 -35 -21 -14 -28 -14 -72 1 -27 9 -53 20 -59 24 -5 5 -36 15 -67 23 -54 14
-59 14 -125 -10z"/>
<path d="M1390 3081 c-5 -11 -14 -37 -18 -58 l-8 -38 -134 -6 -135 -5 140 0
139 1 8 42 c4 23 12 51 18 63 6 11 8 20 6 20 -3 0 -10 -9 -16 -19z"/>
<path d="M1565 2915 c-167 -23 -175 -29 -226 -138 -27 -59 -33 -85 -33 -142
-1 -58 3 -76 22 -103 34 -47 89 -72 159 -72 146 2 204 101 155 262 -23 73 -20
101 17 163 17 30 18 47 2 44 -3 -1 -46 -7 -96 -14z"/>
<path d="M1712 2853 c-22 -33 -34 -73 -21 -73 5 0 9 6 9 13 0 7 9 29 20 50 24
44 19 49 -8 10z"/>
<path d="M1711 2632 c-2 -137 -71 -215 -200 -228 -38 -4 -70 -1 -101 10 -54
19 -67 12 -17 -9 59 -25 164 -20 225 11 82 41 125 139 104 234 l-10 45 -1 -63z"/>
<path d="M1204 2143 c13 -44 46 -155 67 -230 l23 -83 383 0 c340 0 383 2 383
16 0 8 -13 72 -30 142 -16 70 -32 137 -35 150 l-5 22 -396 0 c-372 0 -395 -1
-390 -17z m288 -84 c15 -8 19 -17 15 -38 -4 -20 -1 -30 14 -39 10 -7 19 -19
19 -27 0 -24 -37 -36 -108 -33 -60 3 -67 5 -65 23 2 25 -18 95 -28 95 -4 0 -9
7 -13 15 -4 13 7 15 70 15 41 0 84 -5 96 -11z m179 -40 c42 -65 59 -83 71 -71
11 11 -7 88 -22 97 -27 16 -3 25 70 25 68 0 83 -3 101 -21 15 -15 18 -24 9
-34 -13 -16 6 -55 27 -55 18 0 16 -29 -2 -36 -26 -10 -61 5 -73 31 -13 27 -42
34 -42 10 0 -8 5 -15 10 -15 6 0 10 -7 10 -15 0 -12 -16 -14 -92 -12 -82 2
-93 4 -90 20 2 12 -4 17 -20 17 -17 0 -19 -3 -10 -12 20 -20 14 -28 -22 -28
-38 0 -55 15 -37 33 6 6 11 25 11 42 0 57 10 75 40 75 23 0 34 -10 61 -51z"/>
<path d="M1412 2028 c7 -19 38 -22 38 -4 0 10 -9 16 -21 16 -12 0 -19 -5 -17
-12z"/>
<path d="M1430 1965 c0 -8 9 -15 20 -15 11 0 20 7 20 15 0 8 -9 15 -20 15 -11
0 -20 -7 -20 -15z"/>
<path d="M1792 2028 c7 -20 48 -23 48 -4 0 11 -9 16 -26 16 -16 0 -24 -5 -22
-12z"/>
<path d="M2715 4058 c-7 -34 -35 -255 -35 -284 l0 -24 434 0 434 0 -5 43 c-3
23 -13 96 -22 162 l-16 120 -392 3 -393 2 -5 -22z m261 -72 c17 -13 17 -18 6
-37 -10 -15 -11 -24 -3 -32 17 -17 13 -45 -8 -57 -20 -10 -181 -15 -181 -5 0
3 7 17 16 31 12 18 15 37 11 69 l-7 45 73 0 c48 0 80 -5 93 -14z m181 -46 c14
-33 30 -60 34 -60 5 0 9 -7 9 -15 0 -11 -12 -15 -50 -15 -38 0 -50 4 -50 15 0
8 5 15 12 15 9 0 9 3 1 11 -7 7 -19 9 -29 5 -13 -5 -15 -9 -6 -18 21 -21 13
-28 -33 -28 -33 0 -45 4 -45 15 0 8 4 15 10 15 5 0 17 17 25 38 26 62 44 82
71 82 21 0 29 -10 51 -60z m229 46 c16 -13 17 -18 6 -35 -10 -17 -10 -25 0
-41 7 -11 18 -20 25 -20 22 0 14 -30 -9 -39 -34 -12 -59 -1 -70 30 -11 31 -48
41 -48 14 0 -8 5 -15 10 -15 6 0 10 -7 10 -15 0 -11 -12 -15 -50 -15 -37 0
-50 4 -50 14 0 8 5 18 11 22 6 3 8 16 6 28 -3 11 -8 36 -12 54 l-7 32 79 0
c53 0 86 -5 99 -14z"/>
<path d="M2885 3960 c-4 -6 5 -10 19 -10 14 0 26 5 26 10 0 6 -9 10 -19 10
-11 0 -23 -4 -26 -10z"/>
<path d="M2893 3913 c-21 -7 -15 -33 7 -33 11 0 20 6 20 14 0 18 -11 25 -27
19z"/>
<path d="M3286 3965 c-3 -9 1 -18 10 -22 19 -7 39 11 30 26 -10 16 -33 13 -40
-4z"/>
<path d="M2705 3288 c4 -57 9 -132 11 -167 4 -73 10 -84 30 -57 12 17 14 18
14 3 0 -13 9 -17 35 -17 21 0 35 5 35 13 0 8 3 8 9 -2 12 -18 41 -7 41 16 2
66 105 131 140 88 15 -18 79 -37 134 -41 21 -1 41 -6 45 -11 8 -11 101 -13
101 -2 0 5 5 9 10 9 6 0 10 -7 10 -15 0 -18 21 -16 36 4 9 11 12 9 18 -14 l7
-28 30 29 c43 41 90 142 98 212 4 32 5 64 3 71 -2 7 -32 11 -83 11 -72 0 -79
-2 -79 -20 0 -11 -11 -27 -25 -36 -23 -15 -29 -15 -78 0 -28 10 -68 25 -87 34
-54 26 -152 21 -222 -11 -32 -15 -59 -25 -59 -22 -5 20 -7 27 -8 40 -1 12 -18
15 -87 15 l-87 0 8 -102z"/>
<path d="M3520 3129 c-6 -11 -10 -25 -8 -30 2 -5 8 4 15 21 13 34 9 40 -7 9z"/>
<path d="M2956 3085 c-3 -9 -6 -24 -5 -33 0 -9 5 -4 10 12 9 32 6 48 -5 21z"/>
<path d="M3451 3027 l-34 -42 38 37 c22 21 37 39 34 42 -2 2 -19 -14 -38 -37z"/>
<path d="M2941 3004 c0 -11 3 -14 6 -6 3 7 2 16 -1 19 -3 4 -6 -2 -5 -13z"/>
<path d="M2732 2973 c37 -2 100 -2 140 0 40 1 10 3 -67 3 -77 0 -110 -1 -73
-3z"/>
<path d="M2991 2881 c-47 -13 -121 -175 -121 -264 0 -103 79 -177 188 -177
147 0 214 107 167 264 -8 27 -15 68 -15 91 l0 42 -46 6 c-25 2 -59 14 -75 26
-29 21 -54 25 -98 12z"/>
<path d="M3272 2775 c0 -16 2 -22 5 -12 2 9 2 23 0 30 -3 6 -5 -1 -5 -18z"/>
<path d="M3302 2627 c-5 -130 -55 -203 -158 -233 -69 -20 -162 -14 -202 12
-23 15 -25 15 -14 1 37 -45 186 -54 266 -17 82 39 121 115 114 225 -4 56 -4
57 -6 12z"/>
<path d="M2681 2128 c0 -18 8 -91 17 -163 l17 -130 396 -3 395 -2 18 152 c10
84 21 158 23 165 4 10 -84 13 -431 13 l-436 0 1 -32z m296 -81 c15 -15 16 -20
5 -38 -11 -18 -11 -23 5 -34 14 -11 16 -18 7 -32 -9 -15 -27 -19 -95 -21 l-84
-3 -1 53 c0 29 -4 64 -9 77 l-8 23 81 -3 c61 -3 86 -9 99 -22z m176 -32 c10
-27 26 -58 34 -68 21 -23 14 -28 -39 -30 -39 -1 -43 1 -41 21 2 14 -3 22 -12
22 -9 0 -14 -8 -12 -22 2 -18 -3 -23 -26 -23 -37 -1 -54 10 -40 27 5 7 18 33
27 58 24 60 35 72 65 68 20 -2 29 -13 44 -53z m222 47 c35 -10 43 -33 20 -56
-17 -17 -8 -49 17 -60 9 -3 7 -9 -6 -20 -36 -29 -69 -16 -78 29 -2 11 -11 21
-21 23 -15 3 -18 -2 -15 -30 3 -32 2 -33 -40 -36 l-42 -3 7 43 c8 49 8 65 -2
94 -6 20 -3 21 62 23 37 1 82 -2 98 -7z"/>
<path d="M2886 2033 c-12 -12 -5 -23 14 -23 11 0 20 4 20 9 0 11 -26 22 -34
14z"/>
<path d="M2887 1973 c-3 -5 -2 -15 2 -21 9 -15 43 -4 38 12 -5 14 -33 20 -40
9z"/>
<path d="M3290 2026 c0 -11 9 -16 26 -16 31 0 28 23 -4 28 -15 2 -22 -2 -22
-12z"/>
</g>
</svg>
